<?xml version="1.0" encoding="UTF-8"?>
<svg width="752pt" height="752pt" version="1.1" viewBox="0 0 752 752" xmlns="http://www.w3.org/2000/svg">
 <path d="m570.17 462.04-118.39 108.53c-3.9023 3.7852-10.105 3.7852-14.008 0-3.7852-3.9023-3.7852-10.105 0-14.008l99.648-91.363h-269.94c-23.602-0.050781-46.219-9.4766-62.871-26.203-16.652-16.727-25.977-39.383-25.926-62.988v-187.46c0-5.4492 4.418-9.8672 9.8672-9.8672s9.8672 4.418 9.8672 9.8672v187.46c0 18.316 7.2734 35.887 20.227 48.836 12.953 12.953 30.52 20.23 48.836 20.23h270.53l-99.648-91.363c-1.9375-1.7773-3.0859-4.2539-3.1953-6.8828-0.11328-2.625 0.82422-5.1914 2.6055-7.125 3.7031-4.0352 9.9766-4.3008 14.008-0.59375l118.39 108.53c0.76562 0.72266 1.3711 1.5977 1.7773 2.5664 1.0508 2.5273 1.0508 5.3672 0 7.8945-0.19141 1.4609-0.80859 2.832-1.7773 3.9453z"/>
</svg>
